<svg id="Capa_1" data-name="Capa 1" xmlns="http://www.w3.org/2000/svg" viewBox="0 0 310.8 149.6">
<defs>
<style>.cls-1{fill:#4c4c4c;}.cls-2{fill:#5e5e5e;}</style>
</defs>
<path class="cls-1" d="M294.22,34.18a1,1,0,0,0-1.11-1L190,34.28l0-4.08a.75.75,0,0,0-.77-.75L18.85,31.24a.77.77,0,0,0-.76.77l1,99a.78.78,0,0,0,.78.76l170.28-1.8a.76.76,0,0,0,.76-.77l0-4.12L294.09,124a1,1,0,0,0,1.09-1Z"/>
<path class="cls-2" d="M289.32,34.24a1,1,0,0,0-1-1l-53.92.56-6.32-11.3L226,26.88l4.1,7L190,34.3l0-4.1a.75.75,0,0,0-.77-.75L28,31.14a.76.76,0,0,0-.76.78l1,99a.76.76,0,0,0,.77.76l161.1-1.7a.76.76,0,0,0,.76-.77l0-4.1,39.67-.41-3.94,7.06,2.21,4.3,6.07-11.41,54.36-.57a1,1,0,0,0,1-1Z"/>
<polygon class="cls-1" points="220.83 41.54 235.91 37.06 200.25 37.44 200.3 41.76 220.83 41.54"/>
<polygon class="cls-1" points="200.56 117.95 200.61 122.27 236.27 121.89 221.09 117.73 200.56 117.95"/>
<path class="cls-1" d="M248.35,37.47l-24.77,8.91c3.33,18.9,4.33,40.39.71,67l24.94,8.39C260.07,89.64,259.1,61.79,248.35,37.47Z"/>
</svg>