<svg id="Capa_1" data-name="Capa 1" xmlns="http://www.w3.org/2000/svg" viewBox="0 0 36.2 34.44"><defs><style>.cls-1{fill:#1b3c80;}.cls-2{fill:#e2415e;fill-rule:evenodd;}</style></defs><circle class="cls-1" cx="18.76" cy="17.18" r="8"/><path class="cls-2" d="M17.2,20.8c1.49-2.3,0,0,1.49-2.28a1.16,1.16,0,0,0,.07-1.45,4.69,4.69,0,0,1-.38-.74c-.05,0-.1,0-.11,0-2.5,4.13-3.34,5.36-3.39,5.44A16.84,16.84,0,0,0,17.2,20.8Z"/><path class="cls-2" d="M17.2,20.8c1.49-2.3,0,0,1.49-2.28a1.16,1.16,0,0,0,.07-1.45,4.69,4.69,0,0,1-.38-.74c-.05,0-.1,0-.11,0-2.5,4.13-3.34,5.36-3.39,5.44A17.39,17.39,0,0,0,17.2,20.8Z"/><path class="cls-2" d="M23.85,21.68c-1.15-2.58-2.49-5.49-3.73-8.21-.39.56-.9,1.42-1.16,1.85-.09.15.17.69.27.89.45.9.88,1.71,1.36,2.59a6.45,6.45,0,0,0,.37.54c1,1.19,1.07,1.4,1.94,2.36Z"/><path class="cls-2" d="M23.85,21.68c-1.15-2.58-2.49-5.49-3.73-8.21-.39.56-.9,1.42-1.16,1.85-.09.15.17.69.27.89.45.9.88,1.71,1.36,2.59a6.45,6.45,0,0,0,.37.54c1,1.19,1.07,1.4,1.94,2.36Z"/><path class="cls-2" d="M19.24,11.27a1.21,1.21,0,0,1-.44.15.79.79,0,0,1-.3,0,.84.84,0,0,0-.66.06,2.21,2.21,0,0,0-.61.51c-.53.62-4,8.92-4.39,9.72,0,0,1,0,1.05,0,1.49-2.07,5-8.09,5.79-9.22.36-.5.5-.53.9-.27A.89.89,0,0,0,19.24,11.27Z"/></svg>